<?xml version="1.0" standalone="no"?>
<!DOCTYPE svg PUBLIC "-//W3C//DTD SVG 20010904//EN"
 "http://www.w3.org/TR/2001/REC-SVG-20010904/DTD/svg10.dtd">
<svg version="1.0" xmlns="http://www.w3.org/2000/svg"
 width="1024.000000pt" height="1024.000000pt" viewBox="0 0 1024.000000 1024.000000"
 preserveAspectRatio="xMidYMid meet">

<g transform="translate(0.000000,1024.000000) scale(0.100000,-0.100000)"
fill="#000000" stroke="none">
<path d="M3985 9010 c-152 -23 -270 -83 -382 -195 -64 -65 -90 -100 -122 -167
-73 -150 -71 -113 -71 -1157 l0 -934 46 7 c26 3 86 6 133 6 l86 0 -3 892 c-2
619 1 913 8 958 23 131 103 234 228 293 l67 32 1215 5 c668 3 1670 5 2225 5
l1010 0 65 -22 c112 -39 210 -131 255 -240 20 -47 20 -81 23 -2103 2 -1464 -1
-2074 -8 -2122 -32 -188 -173 -328 -360 -358 -38 -6 -296 -10 -625 -10 -420
-1 -565 -4 -582 -13 -11 -7 -190 -168 -397 -359 -206 -192 -377 -348 -378
-348 -2 0 -3 141 -3 313 0 280 -2 315 -18 344 -36 66 -11 63 -580 61 l-517 -3
136 -127 135 -128 290 0 289 0 0 -367 c0 -222 4 -383 10 -405 21 -76 104 -126
174 -107 26 7 161 126 503 442 l468 432 575 6 c638 6 622 4 764 76 186 93 325
268 373 470 17 74 18 179 18 2173 0 2003 -1 2098 -18 2160 -68 240 -251 418
-493 480 -76 20 -120 20 -2283 19 -1213 -1 -2228 -5 -2256 -9z"/>
<path d="M4827 8215 c-260 -49 -432 -213 -509 -485 -20 -72 -17 -350 5 -430
63 -233 227 -396 457 -457 90 -23 253 -22 341 4 184 54 330 194 380 362 12 41
12 45 -10 62 -19 16 -40 19 -125 19 -117 -1 -149 -12 -175 -60 -60 -114 -245
-162 -389 -100 -69 30 -153 120 -183 197 -34 88 -39 277 -10 370 51 165 194
264 360 250 117 -10 192 -58 230 -147 l22 -50 63 0 c35 0 90 -3 122 -6 49 -5
63 -3 83 13 23 19 23 21 11 74 -18 78 -62 159 -117 218 -127 135 -356 203
-556 166z"/>
<path d="M5710 8187 c-50 -25 -50 -20 -50 -664 0 -595 3 -646 33 -665 7 -4 60
-8 118 -8 87 0 109 3 120 17 11 12 15 72 19 247 l5 230 84 -1 85 -1 122 -229
c71 -132 133 -236 148 -247 33 -25 231 -36 257 -14 39 31 33 47 -110 298
l-139 243 57 37 c70 46 116 98 150 169 22 49 25 69 26 166 0 103 -2 114 -32
177 -60 128 -170 214 -310 243 -91 19 -546 21 -583 2z m563 -290 c67 -44 88
-143 44 -208 -39 -59 -83 -73 -234 -77 l-133 -4 0 154 c0 85 2 157 4 159 2 2
69 2 148 -1 116 -4 149 -8 171 -23z"/>
<path d="M6894 8190 c-56 -22 -54 -2 -54 -675 0 -341 4 -625 8 -631 16 -24 55
-34 139 -34 64 0 95 4 111 16 l22 15 0 415 c0 228 4 414 9 414 8 0 60 -116
245 -536 52 -117 72 -154 92 -163 14 -6 72 -11 129 -11 94 0 106 2 129 23 15
14 75 141 167 355 78 182 146 332 150 332 5 0 9 -185 8 -412 0 -493 -12 -453
137 -453 148 0 134 -72 134 680 0 629 0 632 -21 651 -18 16 -40 19 -158 22
-79 2 -151 -1 -172 -7 -43 -13 -32 10 -228 -469 -77 -188 -144 -350 -149 -358
-10 -19 3 -48 -198 444 -128 315 -151 365 -175 378 -32 16 -288 19 -325 4z"/>
<path d="M6935 6445 c-33 -7 -118 -30 -189 -49 -71 -20 -153 -36 -181 -36 -28
0 -101 14 -161 31 -287 81 -435 79 -606 -7 -163 -82 -255 -237 -274 -463 -12
-148 19 -297 107 -498 65 -152 78 -206 90 -395 12 -195 21 -258 54 -373 66
-225 210 -437 338 -495 62 -29 159 -27 217 4 53 27 103 95 125 168 8 28 21
118 30 202 8 83 22 186 30 228 19 93 50 172 66 163 34 -22 71 -170 94 -385 19
-171 34 -234 70 -295 40 -69 93 -99 180 -103 114 -6 190 38 290 168 139 181
205 391 225 718 12 195 23 244 89 401 82 196 93 239 98 396 4 106 1 156 -11
207 -49 209 -201 366 -398 413 -77 18 -202 18 -283 0z m255 -247 c75 -23 130
-76 169 -163 19 -42 26 -231 12 -308 -7 -34 -37 -119 -67 -189 -71 -166 -91
-257 -104 -458 -11 -176 -14 -199 -35 -300 -20 -93 -50 -174 -91 -247 -36 -65
-102 -143 -121 -143 -14 0 -30 74 -38 170 -20 255 -72 441 -152 548 -40 53
-118 92 -186 92 -178 0 -285 -182 -323 -550 -23 -220 -24 -226 -39 -246 -13
-18 -16 -17 -57 26 -24 25 -59 77 -80 115 -72 139 -99 261 -118 541 -12 182
-32 278 -86 398 -86 193 -98 240 -99 376 0 117 2 129 29 188 52 113 137 162
281 162 74 0 140 -16 290 -70 103 -38 211 -49 296 -31 29 7 103 30 163 52 153
56 256 67 356 37z"/>
<path d="M3454 6280 c-389 -70 -696 -355 -795 -738 -45 -173 -42 -410 6 -595
67 -257 227 -511 418 -663 94 -75 252 -156 347 -179 418 -99 835 119 1060 556
94 182 136 343 146 554 15 319 -97 606 -316 808 -128 119 -253 188 -435 239
-80 22 -344 33 -431 18z"/>
<path d="M2820 3886 c-345 -103 -548 -204 -741 -369 -212 -181 -365 -439 -419
-705 -19 -95 -21 -131 -18 -440 l3 -337 27 -57 c31 -67 101 -145 166 -187 103
-65 -13 -62 1817 -59 l1660 3 66 32 c98 48 161 110 206 201 l38 76 0 351 c0
328 -2 355 -22 437 -116 457 -441 797 -937 982 -119 45 -338 106 -379 106 -17
0 -58 -18 -101 -44 -186 -116 -437 -172 -661 -147 -177 20 -339 75 -451 152
-67 46 -112 47 -254 5z"/>
</g>
</svg>
