<?xml version="1.0" standalone="no"?>
<!DOCTYPE svg PUBLIC "-//W3C//DTD SVG 20010904//EN"
 "http://www.w3.org/TR/2001/REC-SVG-20010904/DTD/svg10.dtd">
<svg version="1.0" xmlns="http://www.w3.org/2000/svg"
 width="1024.000000pt" height="1024.000000pt" viewBox="0 0 1024.000000 1024.000000"
 preserveAspectRatio="xMidYMid meet">

<g transform="translate(0.000000,1024.000000) scale(0.100000,-0.100000)"
fill="#000000" stroke="none">
<path d="M1752 8410 c-109 -29 -187 -74 -273 -160 -60 -59 -85 -93 -117 -160
-22 -47 -45 -109 -51 -138 -16 -76 -16 -5588 0 -5664 16 -79 81 -206 138 -269
67 -75 169 -143 261 -175 58 -21 107 -28 225 -36 97 -7 1257 -8 3315 -4 3485
7 3222 2 3359 68 101 49 217 169 269 278 22 47 45 109 51 138 16 75 16 5599 0
5674 -6 29 -29 91 -51 138 -74 155 -224 276 -390 315 -55 13 -489 15 -3363 14
-3217 0 -3302 -1 -3373 -19z m6698 -306 c68 -31 123 -83 158 -149 l27 -50 3
-342 3 -343 -3521 0 -3521 0 3 343 c3 337 3 343 27 387 42 81 118 145 201 171
14 4 1497 8 3295 8 l3270 1 55 -26z m188 -3479 l-3 -2290 -23 -43 c-35 -66
-88 -119 -150 -149 l-57 -28 -3285 0 -3285 0 -57 28 c-33 16 -76 49 -102 78
-83 93 -76 -135 -76 2418 l0 2276 3520 0 3520 0 -2 -2290z"/>
<path d="M2085 7810 c-159 -79 -101 -319 78 -320 154 0 229 175 124 289 -48
52 -133 65 -202 31z"/>
<path d="M2712 7814 c-102 -52 -128 -178 -55 -265 75 -88 223 -75 280 26 44
78 21 173 -53 224 -46 32 -126 38 -172 15z"/>
<path d="M3320 7807 c-155 -82 -93 -316 83 -317 181 0 238 238 76 320 -51 26
-106 25 -159 -3z"/>
<path d="M8023 6599 c-87 -16 -151 -65 -193 -149 -22 -43 -29 -123 -18 -208 2
-18 -54 -81 -267 -300 l-270 -278 -39 13 c-83 28 -189 9 -266 -48 -12 -9 -41
5 -145 68 l-130 80 -11 54 c-16 75 -28 101 -65 143 -51 59 -110 88 -190 94
-63 4 -75 2 -133 -27 -101 -50 -165 -160 -154 -265 l5 -41 -220 -180 c-120
-99 -241 -197 -267 -218 l-48 -38 -63 22 c-174 58 -350 -57 -366 -240 -8 -86
17 -152 82 -217 107 -108 266 -112 380 -12 61 54 86 106 94 196 l6 72 269 220
269 219 31 -16 c20 -11 56 -17 101 -17 60 0 78 4 129 32 l59 32 134 -82 c126
-77 133 -83 133 -113 0 -123 117 -246 249 -262 61 -7 144 17 198 56 77 56 124
175 105 265 -8 41 -7 46 17 68 14 14 143 142 285 286 l259 261 62 -6 c163 -15
299 107 299 267 -1 174 -152 300 -321 269z"/>
<path d="M3243 6548 l-23 -24 0 -587 c0 -574 0 -587 20 -607 20 -20 33 -20
615 -20 582 0 595 0 615 20 25 25 27 99 5 226 -48 271 -167 499 -363 692 -196
192 -456 307 -722 319 -123 5 -125 5 -147 -19z"/>
<path d="M2876 6394 c-90 -20 -182 -55 -283 -109 -316 -168 -538 -475 -599
-830 -22 -125 -14 -387 15 -502 116 -462 459 -793 933 -899 105 -24 346 -24
458 0 358 77 657 309 827 642 77 150 135 347 119 407 -11 46 -24 47 -614 47
-633 0 -607 -3 -649 80 l-23 44 0 546 0 547 -23 21 c-27 26 -61 27 -161 6z"/>
<path d="M7754 5064 c-69 -34 -64 52 -64 -1213 l0 -1141 29 -32 29 -33 229 -3
c199 -3 232 -1 260 14 67 35 63 -35 63 1201 0 1044 -1 1120 -18 1153 -31 63
-60 70 -292 70 -162 0 -211 -4 -236 -16z"/>
<path d="M6804 4666 l-34 -34 0 -962 0 -962 34 -34 34 -34 257 0 257 0 34 34
34 34 0 962 0 962 -34 34 -34 34 -257 0 -257 0 -34 -34z"/>
<path d="M5934 4406 l-34 -34 0 -832 0 -832 34 -34 34 -34 237 0 237 0 34 34
34 34 0 832 0 832 -34 34 -34 34 -237 0 -237 0 -34 -34z"/>
<path d="M5083 4100 c-17 -10 -37 -28 -42 -39 -8 -13 -11 -234 -11 -686 l0
-667 34 -34 34 -34 239 0 c261 0 268 1 298 60 13 25 15 121 15 675 0 718 2
698 -65 729 -27 13 -73 16 -252 16 -198 0 -221 -2 -250 -20z"/>
<path d="M2013 3686 c-25 -22 -28 -31 -31 -105 -5 -95 8 -135 49 -156 42 -22
2436 -22 2478 -1 38 20 51 55 51 142 0 73 -1 77 -34 110 l-34 34 -1225 0
-1226 0 -28 -24z"/>
<path d="M2572 3140 l-534 -5 -29 -33 c-27 -30 -29 -38 -29 -108 0 -73 1 -77
34 -110 l34 -34 970 0 c607 0 980 4 996 10 41 15 66 66 66 133 0 73 -20 121
-59 142 -33 17 -160 17 -1449 5z"/>
<path d="M2063 2579 c-71 -21 -104 -109 -68 -179 32 -62 8 -60 750 -60 754 0
727 -2 760 67 21 43 15 105 -12 135 -42 48 -40 48 -740 47 -366 0 -672 -5
-690 -10z"/>
</g>
</svg>
