<?xml version="1.0" standalone="no"?>
<!DOCTYPE svg PUBLIC "-//W3C//DTD SVG 20010904//EN"
 "http://www.w3.org/TR/2001/REC-SVG-20010904/DTD/svg10.dtd">
<svg version="1.0" xmlns="http://www.w3.org/2000/svg"
 width="1024.000000pt" height="1024.000000pt" viewBox="0 0 1024.000000 1024.000000"
 preserveAspectRatio="xMidYMid meet">

<g transform="translate(0.000000,1024.000000) scale(0.100000,-0.100000)"
fill="#000000" stroke="none">
<path d="M2460 9083 c-99 -34 -181 -117 -217 -218 -17 -48 -18 -224 -18 -3561
l0 -3511 40 -79 c50 -98 114 -154 211 -184 66 -20 75 -20 2704 -20 2612 0
2639 0 2701 20 80 25 146 73 188 136 66 100 61 -149 61 3100 0 2040 -3 2961
-11 2981 -15 42 -1284 1311 -1334 1334 -39 18 -108 19 -2160 18 -1902 0 -2125
-2 -2165 -16z m4140 -776 c0 -591 0 -594 70 -665 78 -81 39 -77 648 -80 l542
-3 0 -2862 c-1 -2234 -3 -2865 -13 -2878 -7 -9 -22 -21 -34 -27 -16 -9 -667
-12 -2633 -12 -2855 0 -2653 -4 -2679 57 -8 21 -11 895 -9 3486 l3 3459 28 24
28 24 2025 0 2024 0 0 -523z m675 -77 l400 -400 -403 0 -402 0 0 400 c0 220 1
400 3 400 1 0 182 -180 402 -400z"/>
<path d="M3852 8235 c-130 -29 -272 -114 -355 -213 -193 -231 -217 -607 -61
-955 114 -254 121 -280 134 -492 23 -374 80 -613 196 -824 128 -232 292 -335
459 -287 45 14 69 29 111 70 67 67 83 121 120 381 30 218 60 348 100 429 48
97 67 99 114 7 49 -98 73 -201 120 -527 26 -186 41 -227 105 -291 220 -219
539 17 680 502 40 137 63 291 79 515 17 233 28 277 112 460 95 208 131 376
121 554 -8 131 -28 209 -84 326 -37 78 -60 109 -122 171 -129 130 -286 189
-494 189 -119 0 -201 -16 -352 -67 -103 -36 -118 -38 -230 -38 -113 0 -126 2
-224 37 -57 21 -140 45 -184 53 -97 18 -260 18 -345 0z m274 -256 c32 -5 118
-30 189 -54 246 -84 336 -83 607 4 177 57 263 70 353 51 226 -47 345 -213 345
-480 0 -129 -26 -229 -105 -405 -82 -183 -103 -258 -115 -415 -25 -308 -32
-369 -51 -464 -42 -200 -109 -354 -194 -443 -31 -32 -49 -44 -67 -41 -26 3
-27 6 -53 232 -46 390 -169 650 -338 713 -97 36 -210 2 -290 -87 -111 -123
-181 -346 -222 -699 -9 -74 -21 -141 -27 -148 -19 -23 -45 -14 -90 35 -138
147 -210 401 -238 832 -13 210 -34 296 -119 490 -103 234 -126 358 -97 519 27
152 99 262 206 316 101 51 192 65 306 44z"/>
<path d="M6383 5020 c-53 -32 -66 -63 -71 -160 l-4 -87 -72 -16 c-123 -26
-219 -80 -317 -177 -92 -91 -133 -160 -164 -276 -21 -80 -21 -232 0 -314 37
-145 142 -284 269 -360 60 -35 233 -100 267 -100 18 0 19 -15 21 -325 3 -365
10 -338 -75 -309 -56 19 -129 81 -161 137 -13 23 -34 72 -46 110 -29 90 -48
100 -181 95 -87 -3 -101 -6 -121 -26 -19 -19 -23 -32 -21 -81 2 -69 38 -180
85 -259 92 -156 293 -288 470 -309 l48 -6 0 -71 c1 -126 53 -196 148 -196 48
0 87 17 117 50 16 18 21 41 25 119 l5 96 65 8 c81 10 185 46 258 89 77 45 180
151 220 225 120 225 86 526 -78 694 -91 93 -236 164 -457 225 -10 3 -13 76
-13 324 0 249 3 320 13 320 28 0 116 -50 152 -85 38 -39 75 -109 94 -183 17
-63 38 -72 162 -72 92 0 110 3 133 21 22 17 26 28 26 72 0 31 -12 85 -29 135
-75 214 -255 380 -467 430 l-79 19 -5 89 c-3 49 -11 99 -18 112 -34 59 -136
81 -199 42z m-77 -1158 c-10 -10 -117 49 -159 87 -66 61 -90 125 -85 223 4 63
10 86 34 125 34 55 111 117 169 136 l40 14 3 -290 c1 -160 0 -292 -2 -295z
m381 -427 c144 -54 214 -139 214 -264 0 -33 -5 -78 -12 -98 -27 -85 -108 -160
-204 -189 -93 -27 -85 -53 -85 281 0 178 4 295 9 295 6 0 40 -11 78 -25z"/>
<path d="M3122 4870 c-120 -29 -132 -199 -19 -251 40 -18 80 -19 992 -19 902
0 952 1 984 18 90 49 93 181 4 239 -26 17 -80 18 -978 20 -522 0 -965 -2 -983
-7z"/>
<path d="M3136 4050 c-44 -8 -91 -53 -102 -95 -11 -43 6 -97 40 -131 27 -27
42 -33 96 -39 36 -3 475 -5 975 -3 l910 3 31 22 c41 30 58 72 51 130 -4 38
-12 54 -41 80 l-36 33 -929 0 c-511 0 -935 2 -943 4 -7 2 -31 0 -52 -4z"/>
</g>
</svg>
