<?xml version="1.0" standalone="no"?>
<!DOCTYPE svg PUBLIC "-//W3C//DTD SVG 20010904//EN"
 "http://www.w3.org/TR/2001/REC-SVG-20010904/DTD/svg10.dtd">
<svg version="1.0" xmlns="http://www.w3.org/2000/svg"
 width="1024.000000pt" height="1024.000000pt" viewBox="0 0 1024.000000 1024.000000"
 preserveAspectRatio="xMidYMid meet">

<g transform="translate(0.000000,1024.000000) scale(0.100000,-0.100000)"
fill="#000000" stroke="none">
<path d="M2432 8930 c-198 -52 -359 -204 -424 -400 -20 -59 -22 -91 -26 -356
l-4 -292 -101 -4 c-80 -3 -112 -9 -149 -27 -191 -92 -237 -337 -92 -486 66
-68 118 -88 242 -93 l102 -4 0 -442 0 -441 -88 -1 c-121 -1 -182 -23 -248 -88
-152 -153 -114 -400 78 -495 56 -28 70 -31 160 -31 l98 0 0 -444 0 -444 -102
-4 c-124 -5 -176 -25 -242 -93 -119 -122 -113 -324 14 -439 66 -60 120 -79
233 -84 l97 -4 0 -438 0 -438 -98 -4 c-82 -3 -107 -8 -154 -31 -141 -69 -207
-224 -162 -377 12 -42 29 -67 78 -116 75 -74 127 -94 252 -94 l83 0 3 -402 4
-403 27 -82 c55 -163 162 -286 312 -357 136 -66 -88 -61 2995 -61 3103 0 2857
-5 3005 65 144 69 245 186 302 345 l28 80 3 3225 c3 3614 9 3311 -71 3464 -76
148 -212 253 -383 296 -76 20 -122 20 -2888 19 -2735 0 -2813 -1 -2884 -19z
m5741 -286 c64 -22 139 -91 168 -156 l24 -53 0 -3230 0 -3230 -23 -51 c-27
-60 -89 -123 -152 -156 l-45 -23 -2825 0 -2825 0 -45 24 c-61 32 -116 86 -148
146 l-27 50 -3 568 -3 567 123 0 c97 0 130 4 157 18 95 48 107 175 23 237 -23
17 -46 20 -164 23 l-138 4 0 614 0 614 130 0 c147 0 178 9 210 63 41 67 13
164 -55 193 -24 10 -73 14 -160 14 l-125 0 0 615 0 615 128 0 c104 0 133 3
161 18 66 35 90 125 51 189 -36 59 -60 68 -207 71 l-133 4 0 609 0 609 131 0
c116 0 136 2 166 21 83 52 84 169 2 227 -19 14 -52 18 -162 20 l-138 4 3 281
c3 270 4 284 26 324 43 81 94 127 177 160 23 9 711 12 2841 12 2545 1 2815 -1
2857 -15z m-6193 -1069 l0 -36 -71 3 c-57 2 -74 7 -83 21 -18 29 17 47 91 47
l63 0 0 -35z m0 -1500 l0 -36 -71 3 c-57 2 -74 7 -83 21 -18 29 17 47 91 47
l63 0 0 -35z m0 -1505 l0 -40 -56 0 c-65 0 -94 13 -94 41 0 25 31 38 98 38
l52 1 0 -40z m0 -1505 l0 -36 -66 3 c-49 2 -70 7 -77 20 -20 31 8 48 79 48
l64 0 0 -35z"/>
<path d="M6258 8058 c-188 -18 -358 -129 -436 -285 -108 -213 -91 -557 40
-833 59 -124 68 -159 79 -325 11 -174 29 -289 65 -412 59 -205 141 -362 243
-464 81 -80 137 -109 213 -109 102 0 169 38 218 123 38 67 56 153 75 357 8 91
20 190 26 220 13 68 40 150 50 150 11 0 46 -98 58 -164 6 -31 18 -130 26 -219
26 -261 49 -334 134 -410 70 -63 179 -76 268 -31 106 52 228 216 298 399 70
182 99 326 115 563 11 164 22 208 94 368 47 105 72 207 85 338 30 328 -73 557
-301 672 -103 52 -182 67 -318 61 -102 -4 -129 -9 -245 -48 -119 -40 -138 -44
-230 -44 -69 1 -113 6 -140 17 -174 70 -281 90 -417 76z m284 -293 c220 -85
308 -85 570 1 203 66 343 51 444 -50 75 -75 97 -140 96 -281 0 -145 -26 -259
-96 -422 -64 -151 -72 -187 -86 -398 -16 -239 -51 -389 -131 -552 -38 -76
-110 -173 -129 -173 -17 0 -30 69 -49 265 -30 290 -67 416 -147 499 -73 75
-176 103 -260 71 -90 -34 -147 -103 -188 -227 -31 -94 -42 -155 -61 -363 -9
-93 -20 -187 -26 -209 l-10 -39 -40 39 c-22 21 -62 82 -89 134 -82 161 -124
335 -139 581 -11 173 -25 231 -91 381 -59 137 -77 201 -92 335 -19 161 8 279
80 356 98 103 261 122 444 52z"/>
<path d="M4080 7685 c-315 -67 -541 -288 -626 -615 -25 -96 -23 -281 5 -384
63 -236 217 -429 426 -532 133 -65 195 -79 360 -79 163 0 248 20 374 85 199
104 353 297 413 517 30 110 30 306 0 415 -75 276 -283 491 -557 578 -89 28
-297 37 -395 15z"/>
<path d="M3695 5855 c-169 -46 -339 -123 -444 -200 -239 -176 -377 -396 -425
-674 -19 -111 -22 -375 -5 -432 16 -52 64 -108 113 -130 39 -18 97 -19 1314
-19 1381 0 1311 -3 1370 53 54 50 66 92 70 240 8 304 -45 502 -188 706 -128
180 -290 300 -543 400 -192 76 -283 86 -418 46 -186 -56 -402 -56 -589 0 -94
28 -177 31 -255 10z"/>
<path d="M3493 3830 c-133 -31 -152 -206 -29 -264 31 -15 220 -16 2171 -16
1951 0 2140 1 2171 16 99 47 110 183 20 247 l-31 22 -2135 2 c-1174 0 -2150
-2 -2167 -7z"/>
<path d="M3453 2980 c-92 -56 -95 -186 -4 -243 l36 -22 2156 0 2156 0 36 28
c46 35 59 58 59 111 1 52 -24 101 -65 126 -31 20 -67 20 -2187 20 -2118 0
-2156 0 -2187 -20z"/>
</g>
</svg>
