<?xml version="1.0" standalone="no"?>
<!DOCTYPE svg PUBLIC "-//W3C//DTD SVG 20010904//EN"
 "http://www.w3.org/TR/2001/REC-SVG-20010904/DTD/svg10.dtd">
<svg version="1.0" xmlns="http://www.w3.org/2000/svg"
 width="1024.000000pt" height="1024.000000pt" viewBox="0 0 1024.000000 1024.000000"
 preserveAspectRatio="xMidYMid meet">

<g transform="translate(0.000000,1024.000000) scale(0.100000,-0.100000)"
fill="#000000" stroke="none">
<path d="M1881 9024 c-80 -21 -145 -60 -206 -125 -67 -70 -110 -159 -125 -254
-7 -49 -10 -1142 -8 -3570 l3 -3500 23 -64 c53 -146 153 -246 296 -295 l61
-21 3145 -3 c2148 -2 3170 1 3225 8 196 25 344 159 390 351 13 56 15 476 15
3554 0 2370 -3 3511 -11 3554 -5 35 -22 89 -36 118 -32 69 -127 171 -191 206
-113 61 138 57 -3347 56 -2746 0 -3187 -2 -3234 -15z m3101 -2009 l3 -1745
-1582 0 -1583 0 0 1675 c0 1801 -2 1712 48 1769 42 47 -17 45 1594 46 l1518 0
2 -1745z m3354 1724 c18 -11 43 -37 56 -57 l23 -37 3 -1687 2 -1688 -1580 0
-1580 0 0 1745 0 1745 1521 0 c1517 0 1522 0 1555 -21z m-3356 -5509 l0 -1760
-1515 0 c-1286 0 -1520 2 -1543 14 -36 19 -78 65 -91 99 -8 20 -11 548 -11
1718 l0 1689 1580 0 1580 0 0 -1760z m3440 73 c0 -1620 -1 -1690 -19 -1728
-21 -46 -54 -79 -94 -94 -20 -8 -493 -11 -1538 -11 l-1509 0 0 1760 0 1760
1580 0 1580 0 0 -1687z"/>
<path d="M2885 8109 c-172 -23 -311 -130 -401 -308 -40 -80 -54 -139 -60 -246
-10 -166 18 -285 132 -555 26 -61 28 -78 35 -270 7 -221 22 -315 68 -453 41
-119 87 -211 143 -281 85 -105 156 -145 259 -146 82 0 127 18 189 76 67 63
103 147 139 330 35 176 59 275 71 287 9 10 26 -67 65 -282 14 -79 35 -166 47
-195 62 -147 150 -216 276 -216 87 0 154 33 229 113 70 75 121 168 167 308 46
138 64 255 75 484 l8 190 52 126 c81 199 94 259 95 434 1 133 -2 158 -23 223
-43 132 -137 248 -262 324 -74 45 -146 62 -259 61 -87 -1 -127 -11 -340 -88
-65 -24 -85 -27 -160 -23 -70 4 -107 13 -205 51 -70 26 -153 50 -198 56 -43 6
-79 10 -80 10 -1 -1 -29 -5 -62 -10z m250 -306 c259 -97 378 -96 634 4 182 70
277 61 366 -39 55 -60 77 -118 82 -218 6 -106 -17 -213 -81 -368 -64 -154 -86
-274 -86 -460 0 -94 -6 -180 -16 -233 -29 -155 -88 -313 -134 -359 -23 -23
-63 -26 -79 -6 -7 8 -28 98 -47 199 -62 336 -116 455 -226 501 -81 34 -167 14
-244 -57 -86 -79 -118 -164 -169 -452 -34 -197 -53 -228 -116 -195 -36 20
-114 203 -149 350 -6 25 -15 144 -20 265 -10 247 -18 288 -93 470 -105 253
-102 442 9 564 42 47 75 67 131 80 56 13 104 3 238 -46z"/>
<path d="M7697 7957 c-78 -79 -419 -456 -450 -498 -62 -85 -45 -183 38 -214
43 -17 47 -17 90 0 39 14 83 57 294 290 173 190 251 282 256 304 9 44 -10 95
-51 131 -29 25 -43 30 -85 30 -45 0 -53 -4 -92 -43z"/>
<path d="M5713 7615 c-45 -19 -73 -69 -73 -129 0 -43 4 -53 39 -87 l39 -39
634 0 c629 0 636 0 662 21 81 64 71 197 -19 235 -50 21 -1234 20 -1282 -1z"/>
<path d="M5713 6835 c-79 -34 -98 -155 -34 -218 l31 -32 633 -3 633 -2 35 23
c43 29 59 60 59 118 0 55 -26 94 -76 115 -50 21 -1234 20 -1281 -1z"/>
<path d="M7711 6634 c-55 -49 -461 -497 -484 -534 -37 -59 -16 -140 46 -179
42 -26 83 -27 123 -2 16 10 118 115 225 232 313 342 299 325 299 378 0 82 -56
141 -134 141 -27 0 -46 -9 -75 -36z"/>
<path d="M5696 6051 c-40 -27 -55 -57 -56 -113 0 -39 6 -54 31 -83 17 -19 47
-40 67 -45 25 -8 232 -10 637 -8 575 3 601 4 632 23 39 23 63 70 63 122 -1 47
-17 78 -56 104 -28 18 -53 19 -659 19 -606 0 -631 -1 -659 -19z"/>
<path d="M2482 4203 c-41 -20 -65 -65 -64 -121 0 -48 19 -83 59 -109 25 -17
87 -18 926 -21 593 -2 911 1 936 8 55 15 89 45 102 92 14 55 -10 122 -55 149
-30 18 -63 19 -951 19 -829 0 -923 -2 -953 -17z"/>
<path d="M2500 3277 c-98 -34 -109 -194 -17 -244 30 -17 93 -18 925 -21 630
-2 905 1 934 9 114 30 142 172 47 240 l-34 24 -910 2 c-688 2 -918 -1 -945
-10z"/>
<path d="M2491 2333 c-73 -36 -96 -142 -44 -204 52 -62 8 -59 989 -59 806 0
899 2 930 16 105 50 107 194 3 246 -32 17 -97 18 -939 18 -824 0 -908 -2 -939
-17z"/>
<path d="M7733 4448 c-22 -11 -473 -499 -505 -547 -38 -57 -11 -153 51 -186
42 -21 80 -19 122 8 35 21 466 482 501 536 38 57 11 153 -51 186 -34 17 -86
19 -118 3z"/>
<path d="M5704 4071 c-48 -29 -64 -59 -64 -117 0 -37 6 -59 21 -78 45 -58 24
-56 696 -56 474 0 624 3 643 13 65 33 93 145 49 201 -45 58 -24 56 -696 56
-591 0 -619 -1 -649 -19z"/>
<path d="M7716 3199 c-29 -23 -37 -31 -297 -313 -96 -104 -182 -200 -191 -215
-52 -78 14 -191 112 -191 62 0 103 35 330 285 124 136 230 257 237 268 7 12
12 42 13 66 0 37 -5 49 -39 82 -35 35 -44 39 -88 39 -36 0 -58 -6 -77 -21z"/>
<path d="M5734 2959 c-18 -5 -46 -25 -63 -44 -25 -29 -31 -44 -31 -83 0 -29 8
-59 20 -79 39 -65 16 -63 690 -63 551 0 615 2 647 17 53 25 75 67 70 131 -5
64 -42 108 -103 122 -51 12 -1189 11 -1230 -1z"/>
</g>
</svg>
