<?xml version="1.0" standalone="no"?>
<!DOCTYPE svg PUBLIC "-//W3C//DTD SVG 20010904//EN"
 "http://www.w3.org/TR/2001/REC-SVG-20010904/DTD/svg10.dtd">
<svg version="1.0" xmlns="http://www.w3.org/2000/svg"
 width="1024.000000pt" height="1024.000000pt" viewBox="0 0 1024.000000 1024.000000"
 preserveAspectRatio="xMidYMid meet">

<g transform="translate(0.000000,1024.000000) scale(0.100000,-0.100000)"
fill="#000000" stroke="none">
<path d="M1701 8629 c-181 -30 -355 -160 -434 -322 -67 -137 -62 63 -62 -2697
l0 -2515 24 -79 c47 -150 153 -278 292 -351 142 -74 45 -69 1405 -75 l1220 -5
-22 -175 c-12 -96 -26 -197 -31 -225 l-8 -50 -300 -5 c-272 -5 -305 -8 -357
-27 -143 -53 -247 -170 -277 -311 -6 -29 -11 -126 -11 -215 0 -183 8 -214 69
-254 l34 -23 1888 2 1887 3 27 25 c51 47 55 66 55 244 0 91 -5 189 -11 218
-35 165 -178 301 -346 328 -32 6 -176 10 -320 10 -145 0 -263 3 -263 8 0 4
-11 81 -24 172 -13 91 -27 191 -30 223 l-6 57 1190 0 c1326 0 1276 -2 1420 68
138 67 259 212 307 367 17 58 18 162 18 2590 0 2426 -1 2532 -18 2589 -61 198
-206 344 -407 412 -53 18 -167 19 -3455 20 -1968 1 -3423 -2 -3454 -7z m6885
-321 c53 -28 101 -76 131 -131 17 -30 18 -157 23 -2345 l5 -2312 -3622 0
-3623 0 0 2298 0 2299 31 61 c35 71 88 118 163 144 48 17 225 17 3446 15
l3395 -2 51 -27z m152 -5154 c-12 -107 -75 -190 -177 -238 l-46 -21 -3400 0
-3400 0 -43 23 c-102 54 -163 142 -170 245 l-4 57 3624 0 3624 0 -8 -66z
m-2928 -604 c0 -34 30 -291 46 -390 l6 -35 -739 3 -740 2 13 78 c7 42 17 131
24 197 6 66 13 135 16 153 l5 32 684 0 685 0 0 -40z m938 -740 c44 -27 64 -76
60 -153 l-3 -62 -1687 -3 -1688 -2 0 73 c0 82 22 130 70 154 20 10 364 13
1620 13 1582 0 1595 0 1628 -20z"/>
<path d="M5067 8086 c-82 -30 -121 -91 -115 -176 7 -95 75 -160 168 -160 144
0 224 162 139 281 -37 52 -129 78 -192 55z"/>
<path d="M2825 7466 c-103 -16 -142 -29 -240 -79 -157 -81 -281 -239 -337
-433 -21 -71 -23 -100 -23 -284 0 -177 3 -219 23 -307 32 -145 72 -260 172
-493 48 -113 95 -234 103 -270 19 -75 33 -224 42 -425 20 -483 118 -815 317
-1072 80 -105 195 -183 267 -183 69 0 122 51 135 130 4 19 18 179 32 355 35
441 65 605 137 754 80 164 228 248 385 220 205 -38 323 -225 377 -596 8 -60
26 -253 39 -429 26 -346 32 -375 86 -414 146 -104 431 186 555 564 64 195 90
362 111 709 21 350 32 399 150 665 80 179 136 343 166 482 19 89 22 136 22
305 1 179 -2 208 -22 279 -75 261 -263 445 -518 508 -179 43 -437 23 -659 -52
-179 -61 -269 -81 -362 -81 -104 0 -138 7 -320 65 -161 51 -253 72 -378 86
-111 12 -158 11 -260 -4z m570 -441 c178 -47 361 -58 525 -31 56 10 104 15
107 12 18 -18 -59 -59 -165 -88 -109 -29 -306 -29 -417 1 -108 29 -196 73
-217 109 -32 53 -45 53 167 -3z"/>
<path d="M7764 6960 c-37 -15 -74 -68 -74 -106 0 -48 12 -69 83 -141 l61 -63
-914 0 c-889 0 -916 -1 -947 -20 -86 -52 -89 -163 -6 -217 25 -17 85 -18 940
-18 502 0 913 -2 913 -5 0 -3 -23 -28 -51 -55 -91 -89 -104 -152 -46 -210 38
-38 74 -50 115 -41 17 5 94 74 214 195 195 196 211 219 194 285 -6 25 -346
376 -383 395 -25 13 -69 13 -99 1z"/>
<path d="M6404 5868 c-38 -23 -336 -302 -366 -342 -32 -44 -38 -108 -14 -154
17 -32 342 -355 373 -371 29 -15 92 -13 121 3 32 17 62 65 62 99 0 40 -21 75
-84 137 -31 30 -56 57 -56 60 0 3 370 4 822 2 453 -2 843 0 867 3 121 18 160
173 59 235 -32 20 -48 20 -903 20 l-870 0 77 73 c45 42 80 83 83 100 11 41 -2
91 -30 117 -29 27 -108 37 -141 18z"/>
<path d="M5971 4602 c-40 -21 -71 -73 -71 -117 0 -37 30 -88 67 -112 26 -17
85 -18 1091 -21 1031 -2 1065 -2 1107 17 101 45 110 166 16 228 l-34 23 -1071
0 c-1018 0 -1073 -1 -1105 -18z"/>
</g>
</svg>
